<?xml version="1.0" encoding="iso-8859-1"?>
<!-- Generator: Adobe Illustrator 19.0.0, SVG Export Plug-In . SVG Version: 6.00 Build 0)  -->
<svg xmlns="http://www.w3.org/2000/svg" xmlns:xlink="http://www.w3.org/1999/xlink" version="1.1" id="Layer_1" x="0px" y="0px" viewBox="0 0 450 450" style="enable-background:new 0 0 450 450;" xml:space="preserve" width="512px" height="512px">
<g>
	<path d="M281.213,0H60v450h330V108.787L281.213,0z M290,51.213L338.787,100H290V51.213z M260,30v100h100v150H90V30H260z M90,420   V310h270v110H90z" fill="#fff"/>
	<path d="M190.561,341.64c-1.627-1.813-3.574-3.28-5.84-4.4c-2.268-1.12-4.76-1.68-7.48-1.68h-24.24v56.8h13.12V374.04h11.52   c2.72,0,5.2-0.533,7.44-1.601c2.24-1.066,4.146-2.506,5.72-4.32c1.572-1.813,2.8-3.866,3.68-6.159s1.32-4.692,1.32-7.2   c0-2.347-0.468-4.666-1.4-6.96C193.467,345.507,192.187,343.453,190.561,341.64z M180.841,360.6c-1.12,1.334-2.454,2-4,2h-10.72   v-15.52h10.24c0.747,0,1.493,0.147,2.24,0.439c0.746,0.294,1.413,0.76,2,1.4c0.586,0.64,1.052,1.439,1.4,2.399   c0.346,0.96,0.52,2.107,0.52,3.44C182.521,357.319,181.961,359.268,180.841,360.6z" fill="#fff"/>
	<path d="M247.2,343.88c-2.374-2.561-5.32-4.587-8.84-6.08s-7.627-2.24-12.32-2.24h-21.2v56.8h21.2c4.266,0,8.146-0.68,11.64-2.04   c3.493-1.359,6.48-3.279,8.96-5.76c2.48-2.479,4.386-5.466,5.72-8.96c1.333-3.492,2-7.4,2-11.72c0-3.893-0.6-7.561-1.8-11   C251.36,349.439,249.572,346.439,247.2,343.88z M240,370.64c-0.667,2.054-1.627,3.84-2.88,5.36c-1.254,1.52-2.814,2.707-4.68,3.56   c-1.868,0.854-4,1.28-6.4,1.28h-8.08v-33.76h8.08c2.346,0,4.452,0.399,6.32,1.199c1.866,0.801,3.44,1.948,4.72,3.44   c1.28,1.493,2.252,3.268,2.92,5.32c0.666,2.054,1,4.333,1,6.84C241,366.333,240.666,368.587,240,370.64z" fill="#fff"/>
	<polygon points="264.119,392.359 277.238,392.359 277.238,369.96 298.198,369.96 298.198,359.319 277.238,359.319 277.238,347.08    302.679,347.08 302.679,335.56 264.119,335.56  " fill="#fff"/>
</g>
<g>
</g>
<g>
</g>
<g>
</g>
<g>
</g>
<g>
</g>
<g>
</g>
<g>
</g>
<g>
</g>
<g>
</g>
<g>
</g>
<g>
</g>
<g>
</g>
<g>
</g>
<g>
</g>
<g>
</g>
</svg>
